<?xml version="1.0" encoding="utf-8"?>
<!-- Generator: Adobe Illustrator 18.0.0, SVG Export Plug-In . SVG Version: 6.00 Build 0)  -->
<!DOCTYPE svg PUBLIC "-//W3C//DTD SVG 1.1//EN" "http://www.w3.org/Graphics/SVG/1.1/DTD/svg11.dtd">
<svg version="1.1" id="Layer_1" xmlns="http://www.w3.org/2000/svg" xmlns:xlink="http://www.w3.org/1999/xlink" x="0px" y="0px"
	 viewBox="0 0 640 96" enable-background="new 0 0 640 96" xml:space="preserve">
<path fill="#DB1905" d="M0,60.8v13.7L41.1,96l41.1-21.5V60.8l0,0l-14.5-7.4l14.5-7.6V32.2h0l0,0v-0.1l-0.1,0.1L41.1,11l-41,21.1
	L0,32.1v13.7l14.5,7.6L0,60.8"/>
<polygon fill="#FF5224" points="67.7,53.4 41.1,67.3 14.5,53.4 0,60.8 41.1,82.3 82.2,60.8 "/>
<polygon fill="#FF5224" points="41.1,11 82.2,32.2 41.1,53.7 0,32.2 "/>
<g>
	<path fill="#444444" d="M140.9,39.8h0.4c0,0-0.4-3.5-0.4-4V7.3h-8.5V0h17.4v80.9h8.2v7.3h-14.9l-1.3-8.3h-0.5c0,0-5.4,9.1-18.8,9.1
		c-14.6,0-25.6-9.8-25.6-28.5c0-18.2,11.8-28.4,25.7-28.4C136.7,32.2,140.9,39.8,140.9,39.8z M140.9,72.4V47.6
		c-1.5-2.4-6.3-7.9-16.6-7.9c-8.9,0-18.6,6.5-18.6,20.9c0,14.3,8.8,21.1,18.7,21.1C131.1,81.6,137.8,78.5,140.9,72.4z"/>
	<path fill="#444444" d="M203.2,79c0,0-4.9,10.1-21.1,10.1c-11.4,0-19.1-6.7-19.1-16c0-10.3,9.7-15.6,25.2-15.6h14v-4.6
		c0-9.5-5.4-13.5-15.5-13.5c-9.6,0-14.4,4.6-14.4,10.8v1.2h-8.2v-2.7c0-8,7.1-16.4,22.8-16.4c14.9,0,24.1,6.6,24.1,21.1v27.7h6.6
		v7.3h-13.3l-1.1-9.2H203.2z M202.2,63.9h-13.4c-9.7,0-17,2.8-17,9.2c0,5.4,5.1,9,12.2,9c12.8,0,18.2-9.6,18.2-9.6V63.9z"/>
	<path fill="#444444" d="M236.2,18.2V33h17.5v7.1h-17.5v29.8c0,7.8,3.4,11.6,9.2,11.6c6.2,0,9.9-1.8,9.9-1.8v7.5
		c0,0-4.5,1.9-11.4,1.9c-10.6,0-16.7-6.2-16.7-18.7V40.1h-8.4V33h8.4l1.5-14.8H236.2z"/>
	<path fill="#444444" d="M300.5,79c0,0-4.9,10.1-21.1,10.1c-11.4,0-19.1-6.7-19.1-16c0-10.3,9.7-15.6,25.2-15.6h14v-4.6
		c0-9.5-5.4-13.5-15.5-13.5c-9.6,0-14.4,4.6-14.4,10.8v1.2h-8.2v-2.7c0-8,7.1-16.4,22.8-16.4c14.9,0,24.1,6.6,24.1,21.1v27.7h6.6
		v7.3h-13.3l-1.1-9.2H300.5z M299.6,63.9h-13.4c-9.7,0-17,2.8-17,9.2c0,5.4,5.1,9,12.2,9c12.8,0,18.2-9.6,18.2-9.6V63.9z"/>
	<path fill="#444444" d="M331.4,80l-1.4,8.3h-6.7V7.3h-8.2V0h17v35.7c0,0.5-0.4,4-0.4,4h0.4c0,0,5-7.6,18.5-7.6
		c13.7,0,25.6,10.2,25.6,28.4c0,18.7-11,28.5-25.4,28.5c-13.4,0-18.9-9.1-18.9-9.1H331.4z M332.1,47.6v24.8c3,6,9.8,9.2,16.6,9.2
		c9.8,0,18.6-6.7,18.6-21.1c0-14.4-9.6-20.9-18.5-20.9C338.6,39.6,333.8,45.1,332.1,47.6z"/>
	<path fill="#444444" d="M419.4,41.2c-1.3-0.5-3.4-0.8-6.3-0.8c-13.7,0-16.6,16.3-16.6,16.3v24.3h9v7.3h-26v-7.3h8.2V40.4h-8.2V33
		h14.9l0.8,14.1h0.4c0,0,2.7-14.9,17.8-14.9c2.5,0,4.6,0.4,6,0.6V41.2z"/>
	<path fill="#444444" d="M444.5,80.9h7.9v7.3h-25v-7.3h8.2V40.4h-8.2V33h17V80.9z M439.6,23c-3.8,0-6.9-3.1-6.9-7.1
		c0-3.8,3.1-6.9,6.9-6.9c3.9,0,7.1,3.1,7.1,6.9C446.7,19.9,443.5,23,439.6,23z"/>
	<path fill="#444444" d="M463.9,60.6c0,14.4,9.3,21.1,19.9,21.1c12.9,0,18.1-6,18.1-6L505,82c0,0-6.2,7.1-21.8,7.1
		c-16.4,0-28-10.2-28-28.5c0-19.2,10.5-28.4,27.5-28.4c17.3,0,23.5,9.5,23.5,19.8v3H498v-1.8c0-8.3-4.7-13.5-15.5-13.5
		C471.4,39.6,463.9,45.2,463.9,60.6z"/>
	<path fill="#444444" d="M526.7,56.1h13.7l13.3-16h-6.9V33h25v7.1h-8.5l-16.1,19.5l16.9,21.5h8.4v7.1h-13.4l-19.4-25.2h-13v17.9h7.9
		v7.3h-25.1v-7.3h8.3V7.3h-8.3V0h17.2V56.1z"/>
	<path fill="#444444" d="M584.7,70.3v1.3c0,5.7,4.7,10.2,14.8,10.2c10.2,0,14.7-3.3,14.7-8.8c0-5.7-7.3-7.6-15.3-9
		c-9.9-1.8-21.1-4.4-21.1-16.3c0-9.5,9-15.5,21.3-15.5c16.3,0,22.4,6.7,22.4,15.1v4h-8.3v-2.6c0-5.9-3.9-9.3-13.7-9.3
		c-6.4,0-12.9,2.6-12.9,8.4c0,6.5,7.8,7.7,15.9,9.2c10.4,2,20.5,5.2,20.5,16.1c0,8.9-6.6,16-23.2,16c-17,0-23.3-7.6-23.3-15.4v-3.4
		H584.7z"/>
</g>
<g>
	<g>
		<path fill="#444444" d="M630.1,32.9h-2.6v7.4h-1v-7.4h-2.6v-0.8h6.2V32.9z M640,40.3h-1V33h0l-2.8,7.3h-0.7l-2.8-7.3h0v7.3h-1
			v-8.2h1.9l2.3,6.1h0l2.3-6.1h1.9V40.3z"/>
	</g>
	<g>
		<path d="M630.1,32.9h-2.6v7.4h-1v-7.4h-2.6v-0.8h6.2V32.9z M640,40.3h-1V33h0l-2.8,7.3h-0.7l-2.8-7.3h0v7.3h-1v-8.2h1.9l2.3,6.1h0
			l2.3-6.1h1.9V40.3z"/>
	</g>
</g>
</svg>
